<?xml version="1.0" encoding="utf-8"?><!-- Uploaded to: SVG Repo, www.svgrepo.com, Generator: SVG Repo Mixer Tools -->
<svg width="800px" height="800px" viewBox="0 0 32 32" id="boy_Light" data-name="boy/Light" xmlns="http://www.w3.org/2000/svg">
  <path id="Path" d="M0,0H12V2H8V4H6V6H4v4H2v4H0Z" fill="#d8d8d8"/>
  <path id="Path-2" data-name="Path" d="M12,0H26V2h4V4h2V8H30v2H28v2H26v4H24v2H20V16H18V14h6V12H18V10h4V8H16v2H14v2H12V22H10V20H8v6h4v6H10V28H6V26H4V24H2V20H0V14H2V10H4V6H6V4H8V2h4Z" fill="#1a1a1a"/>
  <path id="Path-3" data-name="Path" d="M0,0H6V4H4V2H0Z" transform="translate(26)" fill="#d8d8d8"/>
  <path id="Path-4" data-name="Path" d="M8,0h6V2H10V4h6V6H10V8h2v2h4V8h2v2h2v2H18v2H16v2h2v4H12v2h2v2H4V18H0V12H2v2H4V4H6V2H8Z" transform="translate(8 8)" fill="#d8d8d8"/>
  <path id="Path-5" data-name="Path" d="M6,0H8V24H0V22H2V20H4V12H6V10H4V8H2V4H4V2H6Z" transform="translate(24 8)" fill="#d8d8d8"/>
  <path id="Path-6" data-name="Path" d="M0,0H2V2H0Z" transform="translate(26 16)" fill="#1a1a1a"/>
  <path id="Path-7" data-name="Path" d="M0,0H2V2H0Z" transform="translate(28 18)" fill="#1a1a1a"/>
  <path id="Path-8" data-name="Path" d="M0,0H2V4H4V6H6V8h4v4H0Z" transform="translate(0 20)" fill="#d8d8d8"/>
  <path id="Path-9" data-name="Path" d="M2,0H4V8H2V4H0V2H2Z" transform="translate(24 20)" fill="#1a1a1a"/>
  <path id="Path-10" data-name="Path" d="M0,0H6V2H4V4H2V2H0Z" transform="translate(20 28)" fill="#1a1a1a"/>
</svg>