<?xml version="1.0" encoding="utf-8"?>
<!-- Uploaded to: SVG Repo, www.svgrepo.com, Generator: SVG Repo Mixer Tools -->
<svg width="800px" height="800px" viewBox="0 0 1024 1024" class="icon"  version="1.1" xmlns="http://www.w3.org/2000/svg"><path d="M926.768 885.432c0 45-170.744 78.504-381.344 78.504-210.608 0-381.344-33.504-381.344-78.504 0-45.008 170.728-81.504 381.336-81.504 210.6 0 381.352 36.496 381.352 81.504z" fill="#B8CBCD" /><path d="M293.424 721.328m-140.968 0a140.968 140.968 0 1 0 281.936 0 140.968 140.968 0 1 0-281.936 0Z" fill="#FFFFFF" /><path d="M293.424 886.304a163.904 163.904 0 0 1-116.656-48.32c-64.32-64.32-64.32-168.984 0-233.304a163.88 163.88 0 0 1 116.648-48.32 163.92 163.92 0 0 1 116.648 48.32c64.328 64.32 64.328 168.984 0 233.304a163.848 163.848 0 0 1-116.64 48.32z m0-281.944a116.24 116.24 0 0 0-82.712 34.256c-45.608 45.608-45.608 119.824 0 165.432a116.2 116.2 0 0 0 82.712 34.256c31.24 0 60.616-12.168 82.704-34.256 45.608-45.608 45.608-119.816 0-165.432a116.208 116.208 0 0 0-82.704-34.256z" fill="#783741" /><path d="M190.376 736.992c-14.184 0-28.472-2.4-42.216-7.344a16 16 0 0 1-10.584-14.52l-0.056-1.392a16 16 0 0 1 26.592-12.52c32.52 9.608 68.208 0.712 92.272-23.344 25.768-25.776 33.24-55.32 22.224-87.824a16 16 0 0 1 30.304-10.28c15.04 44.376 4.704 86.12-29.904 120.728-23.744 23.736-55.92 36.496-88.632 36.496zM303.96 875.408c-7.04 0-13.496-4.688-15.432-11.816-11.776-43.28 0.552-89.808 32.168-121.416 33.824-33.832 74.656-44.496 118.136-30.8a15.992 15.992 0 0 1 10.456 20.064 15.96 15.96 0 0 1-20.064 10.456c-32.248-10.152-60.344-2.664-85.896 22.904-23.52 23.512-32.688 58.16-23.92 90.4a16 16 0 0 1-15.448 20.208z" fill="#783741" /><path d="M190.336 73.376c-15.304 3.816-29.336 10.728-40.8 21.976-19.48 19.048-26.832 45.584-25.952 75.656 1.032 34.992 17.784 67.624 44.544 90.208l635.856 563.416-23.968 23.976c-17.576 17.552-17.576 46.296 0 63.872 14.872 14.872 74.608-20.744 116.016-62.152 41.408-41.4 76.8-100.912 61.92-115.792-17.576-17.576-46.32-17.576-63.896 0l-15.872 15.88-566.248-635.28c-29.776-35.216-76.896-53.016-121.6-41.76z" fill="#F7BB83" /><path d="M790.216 939.928c-13.8 0-22.392-5.696-27.168-10.48a68.672 68.672 0 0 1-20.208-48.912c0-18.512 7.184-35.888 20.216-48.912l5.936-5.928-616.776-546.52c-32.064-27.056-51.4-66.36-52.616-107.464-1.16-39.416 10-70.88 33.16-93.528 13.744-13.488 31.176-22.952 51.768-28.096 10.72-2.704 21.848-4.08 33.016-4.08 42.192 0 84.328 20.048 112.72 53.616l548.96 615.896a68.672 68.672 0 0 1 46.784-18.168c18.52 0 35.888 7.176 48.92 20.216 23.576 23.568 1.44 63.464-5.84 76.56-13.544 24.416-33.992 51.088-56.08 73.168-29.192 29.2-85.984 72.632-122.792 72.632z m-0.032-48l0.032 24v-24h-0.032z m-572.64-797.912c-7.224 0-14.4 0.88-21.336 2.632-12.4 3.096-22.152 8.272-29.856 15.832-13.216 12.92-19.52 32.368-18.776 57.832 0.816 27.472 13.952 53.928 36.04 72.568l636.296 563.8a24.024 24.024 0 0 1 8.08 17.232 24.056 24.056 0 0 1-7.016 17.696l-23.968 23.976a20.96 20.96 0 0 0-6.16 14.96c0 3.92 1.032 7.664 2.976 10.912 15.336-3.496 52.968-25.816 85.248-58.088 33.424-33.416 54.536-70.696 57.888-85-7.96-4.792-19.208-3.56-25.928 3.152l-15.864 15.88a23.984 23.984 0 0 1-34.888-1L294.016 131.104c-19.792-23.4-48.224-37.088-76.472-37.088z" fill="#6E4123" /><path d="M148.248 259.104a24.024 24.024 0 0 1-23-17.176c-16.008-53.856-0.096-100.048 47.312-137.288 15.096-11.928 33.448-19.472 54.488-22.36 50.336-7.008 100.712 14.536 141.856 60.696a24 24 0 1 1-35.84 31.936c-17.448-19.576-53.6-51.496-99.44-45.088-12.656 1.736-22.904 5.832-31.368 12.52-22.696 17.832-44.08 41.944-31.008 85.912a24.016 24.016 0 0 1-23 30.848zM517.08 570.408c11.488 11.48 46.08-4.504 74.072-32.496 28-27.992 43.504-62.12 32.024-73.6l62.656 71.192c11.488 11.488-1.896 39.192-29.888 67.184-27.992 27.992-55.728 41.384-67.208 29.896l-71.656-62.176z" fill="#FFFFFF" /><path d="M599.752 652.704c-8.608 0-16.16-2.872-21.856-8.328l-69.792-60.568a26.224 26.224 0 0 1-2.336-2.088 16 16 0 1 1 21.6-23.568l0.52 0.016c8.464 0 30.176-9.8 51.952-31.56 24.176-24.184 31.848-46.16 31.168-51.904a16 16 0 0 1 23.48-21.696c0.68 0.672 1.312 1.384 1.912 2.12l61.168 69.512c6.056 6.32 13.92 20.248 2.672 44.912-6.288 13.792-17.696 29.168-32.992 44.464-14.448 14.448-42.44 38.688-67.496 38.688z m-0.344-32.024l0.344 0.024c7.488 0 24.728-9.168 44.872-29.32 23.576-23.584 29.896-40.416 29.336-45.136l-0.144-0.168-37.912-43.08c-7.384 16.032-19.76 32.544-33.448 46.224-14.896 14.896-31.384 26.64-46.592 33.656l43.344 37.624a32.8 32.8 0 0 0 0.2 0.176z" fill="#6E4123" /><path d="M655.048 692.656c11.488 11.488 38.216 3.36 66.208-24.632s35.976-54.584 24.496-66.072l63.064 70.792c11.488 11.472 5.216 32.072-22.776 60.064-27.992 27.992-48.536 34.192-60.024 22.712l-70.968-62.864z" fill="#FFFFFF" /><path d="M739.432 776.976a34.248 34.248 0 0 1-24.336-9.76l-68.912-61.04a35.44 35.44 0 0 1-2.448-2.208 16 16 0 0 1 21.92-23.288l0.8 0.712a6.28 6.28 0 0 0 2.216 0.304c7.512 0 22.832-6.544 41.272-24.984 24-24 26.144-40.512 24.584-43.296l-0.728-0.824a15.992 15.992 0 0 1 23.256-21.952c0.752 0.752 1.456 1.52 2.12 2.336l61.32 68.832c5.96 6.152 14.32 19.256 6.784 40.192-4.544 12.64-14.616 26.808-29.928 42.12-22.112 22.104-41.056 32.856-57.92 32.856z m-44.136-70.04l41.328 36.6c0.24 0.208 0.48 0.44 0.704 0.664 0.488 0.48 0.832 0.776 2.104 0.776 1.968 0 12.944-1.136 35.296-23.488 14.888-14.888 20.432-24.712 22.448-30.336 1.304-3.616 1.424-6.008 0.328-7.096a12.712 12.712 0 0 1-0.632-0.68l-36.84-41.352c-5.704 12.072-14.944 24.808-27.456 37.304-12.504 12.512-25.184 21.84-37.28 27.608z" fill="#6E4123" /><path d="M790.216 939.928c-13.8 0-22.392-5.696-27.168-10.48a68.672 68.672 0 0 1-20.208-48.912c0-18.512 7.184-35.888 20.216-48.912l5.936-5.928-616.776-546.52c-32.064-27.056-51.4-66.36-52.616-107.464-1.16-39.416 10-70.88 33.16-93.528 13.744-13.488 31.176-22.952 51.768-28.096 10.72-2.704 21.848-4.08 33.016-4.08 42.192 0 84.328 20.048 112.72 53.616l548.96 615.896a68.672 68.672 0 0 1 46.784-18.168c18.52 0 35.888 7.176 48.92 20.216 23.576 23.568 1.44 63.464-5.84 76.56-13.544 24.416-33.992 51.088-56.08 73.168-29.192 29.2-85.984 72.632-122.792 72.632z m-0.032-48l0.032 24v-24h-0.032z m-572.64-797.912c-7.224 0-14.4 0.88-21.336 2.632-12.4 3.096-22.152 8.272-29.856 15.832-13.216 12.92-19.52 32.368-18.776 57.832 0.816 27.472 13.952 53.928 36.04 72.568l636.296 563.8a24.024 24.024 0 0 1 8.08 17.232 24.056 24.056 0 0 1-7.016 17.696l-23.968 23.976a20.96 20.96 0 0 0-6.16 14.96c0 3.92 1.032 7.664 2.976 10.912 15.336-3.496 52.968-25.816 85.248-58.088 33.424-33.416 54.536-70.696 57.888-85-7.96-4.792-19.208-3.56-25.928 3.152l-15.864 15.88a23.984 23.984 0 0 1-34.888-1L294.016 131.104c-19.792-23.4-48.224-37.088-76.472-37.088z" fill="#6E4123" /></svg>