<?xml version="1.0" encoding="iso-8859-1"?>
<!-- Uploaded to: SVG Repo, www.svgrepo.com, Generator: SVG Repo Mixer Tools -->
<svg height="800px" width="800px" version="1.1" id="Layer_1" xmlns="http://www.w3.org/2000/svg" xmlns:xlink="http://www.w3.org/1999/xlink" 
	 viewBox="0 0 511.999 511.999" xml:space="preserve">
<path style="fill:#F9DE8F;" d="M386.208,254.604c-67.975,0-130.209,16.31-130.209,16.31s-72.002-16.31-134.889-16.31
	c-70.524,0-111.551,33.137-111.551,33.137v100.763c0,60.18,48.786,108.966,108.966,108.966c24.499,0,47.11-8.085,65.31-21.733
	l2.882-2.093c18.836-15.544,42.983-24.882,69.312-24.882s50.476,9.338,69.312,24.882l1.063,0.743
	c18.493,14.463,41.776,23.083,67.072,23.083c60.18,0,108.966-48.786,108.966-108.966V287.742
	C502.441,287.742,462.679,254.604,386.208,254.604z M122.687,405.644c-27.77-9.819-48.42-31.777-59.713-59.708
	c26.938-15.772,57.814-20.455,86.465-10.324c27.772,9.819,48.42,31.777,59.713,59.708
	C182.213,411.093,151.337,415.774,122.687,405.644z M393.561,405.644c-28.651,10.13-59.527,5.449-86.465-10.324
	c11.293-27.931,31.943-49.888,59.713-59.708c28.651-10.131,59.527-5.449,86.465,10.324
	C441.98,373.867,421.331,395.824,393.561,405.644z"/>
<path style="fill:#F7CF6D;" d="M393.476,463.695c-25.296,0-48.579-8.62-67.072-23.083l-1.063-0.743
	c-18.836-15.544-42.983-24.882-69.312-24.882s-50.476,9.338-69.312,24.882l-2.882,2.093c-18.2,13.647-40.811,21.733-65.31,21.733
	C58.346,463.695,9.56,414.91,9.56,354.73v33.775c0,60.18,48.786,108.966,108.966,108.966c24.499,0,47.11-8.085,65.31-21.733
	l2.882-2.093c18.836-15.544,42.984-24.882,69.312-24.882c26.329,0,50.476,9.338,69.312,24.882l1.063,0.743
	c18.493,14.463,41.776,23.083,67.072,23.083c60.18,0,108.966-48.786,108.966-108.966V354.73
	C502.441,414.91,453.655,463.695,393.476,463.695z"/>
<path style="fill:#F09EA0;" d="M215.026,140.605c0,47.124,15.211,90.688,40.974,126.076c25.763-35.389,40.973-78.953,40.973-126.076
	c0-47.124-15.211-90.688-40.973-126.076C230.238,49.917,215.026,93.481,215.026,140.605z"/>
<path style="fill:#EF8990;" d="M220.237,139.308c-1.682-7.499-2.972-15.146-3.846-22.92c-0.893,7.949-1.364,16.027-1.364,24.216
	c0,47.122,15.211,90.688,40.974,126.076c25.763-35.389,40.973-78.953,40.973-126.076c0-8.189-0.47-16.267-1.364-24.216
	c-0.874,7.773-2.164,15.42-3.846,22.92C283.168,177.623,228.832,177.623,220.237,139.308z"/>
<g>
	<path style="fill:#88E2E2;" d="M347.908,171.161c-15.487,15.487-24.803,34.801-27.967,54.897
		c20.096-3.163,39.412-12.481,54.897-27.967c15.487-15.487,24.803-34.8,27.967-54.897
		C382.709,146.358,363.393,155.674,347.908,171.161z"/>
	<path style="fill:#88E2E2;" d="M162.719,171.161c15.487,15.487,24.803,34.801,27.967,54.897
		c-20.096-3.163-39.412-12.481-54.897-27.967c-15.487-15.487-24.803-34.8-27.967-54.897
		C127.919,146.358,147.234,155.674,162.719,171.161z"/>
</g>
<g>
	<circle style="fill:#EF8990;" cx="303.155" cy="348.285" r="11.683"/>
	<circle style="fill:#EF8990;" cx="331.628" cy="322.96" r="11.683"/>
	<circle style="fill:#EF8990;" cx="368.499" cy="308.928" r="11.683"/>
	<circle style="fill:#EF8990;" cx="409.232" cy="306.838" r="11.683"/>
	<circle style="fill:#EF8990;" cx="449.953" cy="314.141" r="11.683"/>
	<circle style="fill:#EF8990;" cx="210.817" cy="348.285" r="11.683"/>
	<circle style="fill:#EF8990;" cx="182.344" cy="322.96" r="11.683"/>
	<circle style="fill:#EF8990;" cx="145.473" cy="308.928" r="11.683"/>
	<circle style="fill:#EF8990;" cx="104.752" cy="306.838" r="11.683"/>
	<circle style="fill:#EF8990;" cx="64.019" cy="314.141" r="11.683"/>
</g>
<path d="M508.56,280.398c-0.451-0.375-11.26-9.287-31.822-18.024c-18.608-7.905-49.419-17.33-90.53-17.33
	c-61.95,0-118.329,13.071-130.358,16.047c-12.959-2.814-77.002-16.047-134.74-16.047c-38.072,0-67.798,9.44-86.029,17.36
	c-20.031,8.7-31.067,17.528-31.528,17.899c-4.099,3.311-4.736,9.306-1.436,13.414c3.3,4.108,9.312,4.762,13.428,1.475
	c0.097-0.079,9.958-7.876,27.857-15.559c16.448-7.058,43.28-15.473,77.708-15.473c61.049,0,132.069,15.912,132.778,16.073
	c1.494,0.34,3.051,0.311,4.532-0.075c0.611-0.161,61.918-15.999,127.788-15.999c37.444,0,65.382,8.407,82.226,15.459
	c11.952,5.005,20.173,10.056,24.448,12.966v95.917c0,54.813-44.594,99.407-99.407,99.407c-22.415,0-43.573-7.28-61.184-21.055
	c-0.136-0.107-0.277-0.21-0.421-0.31l-0.753-0.525c-21.102-17.296-47.753-26.818-75.09-26.818c-27.369,0-54.049,9.542-75.163,26.877
	L178.217,468c-0.04,0.028-0.079,0.057-0.119,0.087c-17.293,12.967-37.894,19.821-59.576,19.821
	c-54.812,0.004-99.405-44.591-99.405-99.403v-36.605c0-5.28-4.28-9.559-9.559-9.559S0,346.619,0,351.899v36.605
	c0,65.354,53.17,118.524,118.524,118.524c25.825,0,50.367-8.158,70.983-23.598l2.826-2.052c0.159-0.116,0.316-0.237,0.468-0.362
	c17.734-14.635,40.188-22.697,63.227-22.697s45.494,8.06,63.227,22.697c0.199,0.164,0.404,0.321,0.616,0.468l0.854,0.596
	c20.964,16.321,46.116,24.947,72.75,24.947c65.354,0,118.524-53.17,118.524-118.524V287.742
	C512,284.906,510.74,282.214,508.56,280.398z"/>
<path d="M362.114,420.586c11.77,0,23.419-1.965,34.634-5.929c29.384-10.391,52.605-33.525,65.387-65.136
	c1.778-4.398,0.061-9.435-4.033-11.831c-30.553-17.89-64.108-21.826-94.481-11.088c-29.384,10.389-52.607,33.522-65.389,65.136
	c-1.779,4.398-0.061,9.435,4.033,11.833C321.538,414.852,342.003,420.586,362.114,420.586z M369.994,344.624
	c22.551-7.973,47.449-5.979,70.921,5.517c-11.129,22.457-28.832,38.813-50.542,46.49c-22.549,7.976-47.447,5.981-70.921-5.517
	C330.581,368.655,348.284,352.299,369.994,344.624z"/>
<path d="M119.501,414.656c11.216,3.965,22.862,5.929,34.634,5.929c20.108,0,40.575-5.734,59.848-17.017
	c4.094-2.397,5.811-7.434,4.033-11.833c-12.782-31.615-36.005-54.747-65.389-65.136c-30.373-10.738-63.928-6.801-94.482,11.088
	c-4.094,2.396-5.81,7.433-4.033,11.831C66.893,381.131,90.116,404.265,119.501,414.656z M146.253,344.624
	c21.71,7.675,39.413,24.031,50.542,46.49c-23.475,11.499-48.375,13.489-70.921,5.517c-21.711-7.676-39.414-24.032-50.543-46.49
	C98.804,338.644,123.701,336.65,146.253,344.624z"/>
<path d="M235.42,232.474c4.866-2.047,7.151-7.651,5.104-12.517c-10.576-25.142-15.939-51.841-15.939-79.352
	c0-39.005,10.819-76.43,31.414-109.061c20.595,32.633,31.414,70.057,31.414,109.061c0,28.372-5.693,55.84-16.919,81.643
	c-2.107,4.841,0.11,10.473,4.95,12.578c1.243,0.54,2.536,0.797,3.81,0.797c3.69,0,7.204-2.149,8.77-5.748
	c12.281-28.223,18.507-58.257,18.507-89.269c0-47.695-14.801-93.236-42.804-131.701c-1.8-2.471-4.671-3.933-7.727-3.933
	s-5.929,1.461-7.727,3.933c-28.004,38.466-42.804,84.007-42.804,131.701c0,30.072,5.867,59.263,17.435,86.765
	C224.95,232.234,230.554,234.521,235.42,232.474z"/>
<path d="M319.939,235.618c0.495,0,0.992-0.038,1.487-0.116c22.921-3.609,43.727-14.208,60.17-30.652
	c16.444-16.444,27.043-37.25,30.651-60.171c0.475-3.019-0.523-6.083-2.683-8.246c-2.162-2.16-5.222-3.152-8.246-2.683
	c-22.921,3.609-43.727,14.208-60.17,30.652c-16.444,16.444-27.043,37.25-30.651,60.171c-0.475,3.019,0.523,6.083,2.683,8.246
	C314.987,234.624,317.424,235.618,319.939,235.618z M354.667,177.921L354.667,177.921c10.02-10.021,22.003-17.411,35.199-21.789
	c-4.378,13.196-11.766,25.178-21.788,35.199c-10.02,10.02-22.002,17.41-35.198,21.788
	C337.256,199.923,344.645,187.941,354.667,177.921z"/>
<path d="M129.03,204.849c16.442,16.444,37.25,27.044,60.17,30.653c0.496,0.078,0.993,0.116,1.487,0.116
	c2.515,0,4.951-0.993,6.759-2.799c2.162-2.162,3.16-5.227,2.683-8.246c-3.608-22.92-14.207-43.727-30.651-60.17
	c-16.442-16.444-37.25-27.044-60.17-30.653c-3.017-0.468-6.083,0.523-8.246,2.683c-2.162,2.162-3.16,5.227-2.683,8.246
	C101.988,167.599,112.586,188.406,129.03,204.849z M155.961,177.92C155.961,177.921,155.961,177.921,155.961,177.92
	c10.02,10.021,17.41,22.003,21.786,35.199c-13.196-4.378-25.178-11.766-35.199-21.789c-10.021-10.02-17.411-22.003-21.786-35.198
	C133.957,160.51,145.939,167.899,155.961,177.92z"/>
</svg>