<?xml version="1.0" encoding="iso-8859-1"?>

<!DOCTYPE svg PUBLIC "-//W3C//DTD SVG 1.1//EN" "http://www.w3.org/Graphics/SVG/1.1/DTD/svg11.dtd">
<!-- Uploaded to: SVG Repo, www.svgrepo.com, Generator: SVG Repo Mixer Tools -->
<svg height="800px" width="800px" version="1.1" id="_x36_" xmlns="http://www.w3.org/2000/svg" xmlns:xlink="http://www.w3.org/1999/xlink" 
	 viewBox="0 0 512 512"  xml:space="preserve">
<g>
	<g>
		<g>
			<path style="fill:#8B8B8B;" d="M510.205,90.715c-0.132-0.839-0.291-1.671-0.468-2.502c-2.731-13.463-8-26.512-15.815-38.393
				c-0.795-1.22-1.627-2.439-2.493-3.642c-3.483-4.862-7.408-9.512-11.775-13.879c-4.376-4.376-9.026-8.301-13.888-11.784
				c-1.202-0.867-2.413-1.689-3.642-2.493l-20.773,0.005l18.59-0.044h2.155c-1.81-1.207-3.621-2.328-5.518-3.362
				c-10.345-5.949-21.467-10.087-32.847-12.415c-0.862-0.173-1.638-0.345-2.5-0.431c-22.76-4.138-46.469-1.035-67.676,9.225
				c-0.862,0.431-1.724,0.862-2.5,1.293c-3.362,1.724-6.638,3.621-9.828,5.777c-1.207,0.776-2.414,1.552-3.621,2.414h13.449v-2.5
				h2.5l34.52,0.044l-34.525-0.004l0-0.001h-2.493v2.493v67.697v2.493v67.697h-0.002V90.746v-2.5h-57.417
				c-0.173,0.776-0.345,1.638-0.517,2.5c-3.793,21.294-1.293,43.623,7.587,63.797c0.517,1.293,1.121,2.587,1.724,3.88h0.01
				c0.394,0.831,0.805,1.661,1.233,2.474c5.083,9.857,11.766,19.103,20.023,27.36c8.266,8.266,17.503,14.94,27.36,20.023
				c0.822,0.433,1.653,0.857,2.493,1.255c21.172,10.263,44.952,13.357,67.688,9.273c0.848-0.141,1.678-0.299,2.49-0.476v0.028
				c13.473-2.716,26.566-7.986,38.464-15.864c3.26-2.173,6.411-4.455,9.453-7.063c1.521-1.195,2.934-2.391,4.346-3.694
				c1.25-1.141,2.5-2.282,3.695-3.477c1.521-1.521,2.934-3.043,4.346-4.672c2.662-2.988,5.161-6.03,7.388-9.236v-13.466h0.008
				v13.473c0.857-1.193,1.689-2.396,2.493-3.607c2.095-3.209,4.022-6.497,5.755-9.856c0.433-0.822,0.849-1.662,1.247-2.502
				C511.205,137.223,514.299,113.443,510.205,90.715z"/>
			<path style="fill:#8B8B8B;" d="M351.056,88.16V20.483l-13.449,0.086c-3.19,2.242-6.293,4.655-9.311,7.328
				c-0.431,0.431-0.862,0.776-1.293,1.207c-1.121,1.035-2.242,2.069-3.276,3.19c-1.207,1.207-2.414,2.414-3.535,3.621
				c-0.431,0.517-0.862,0.948-1.293,1.465c-0.862,0.948-1.638,1.896-2.414,2.931l-6.983,9.484
				c-7.931,11.897-13.19,25.001-15.863,38.45l54.227-0.086H351.056z"/>
		</g>
		<path style="fill:#383838;" d="M71.901,484.994l-9.656,9.656v0.086l-15.087,15.001l-0.689,0.69c-2.155,2.069-5.604,2.069-7.759,0
			L1.552,473.27c-2.069-2.155-2.069-5.604,0-7.759l0.69-0.689l15.087-15.001l9.656-9.742c2.155-2.07,5.603-2.07,7.759,0
			L53.365,458.7l18.535,18.536C73.97,479.391,73.97,482.839,71.901,484.994z"/>
		<polygon style="fill:#383838;" points="379.505,253.773 159.837,458.958 106.472,405.593 53.02,352.142 258.205,132.473 
			258.636,132.904 		"/>
		<polygon style="fill:#FCE5E5;" points="226.416,309.552 202.421,285.557 253.621,231.123 280.851,258.353 		"/>
		<polygon style="fill:#E69595;" points="227.519,267.444 253.733,238.436 273.538,258.241 244.53,284.455 		"/>
		<polygon style="fill:#3F3F3F;" points="159.837,458.958 71.556,504.047 39.744,472.235 17.329,449.82 7.931,440.423 
			53.02,352.142 106.472,405.593 		"/>
		<path style="fill:#ACACAB;" d="M484.943,188.77l-6.466,6.466c-0.431,0.517-1.293,0.517-1.724,0L372.264,90.746l-2.5-2.5
			l-16.208-16.207l-36.813-36.813c-0.517-0.431-0.517-1.293,0-1.724l6.466-6.466c0.431-0.517,1.293-0.517,1.724,0l2.069,2.069
			l24.053,24.054l2.5,2.5l35.088,35.088l16.294,16.294l16.294,16.208l2.5,2.5l32.675,32.674l2.5,2.501l23.881,23.88v0.086h0.086
			l2.069,2.069C485.46,187.476,485.46,188.339,484.943,188.77z"/>
		<path style="fill:#FCEDC3;" d="M387.609,244.894l-8.449,8.535l-7.328,7.242c-0.949,0.949-2.501,0.949-3.449,0l-58.538-58.538
			l-58.538-58.538c-0.948-0.948-0.948-2.501,0-3.449l7.328-7.242l8.449-8.535c0.948-0.948,2.5-0.948,3.449,0l34.054,34.054
			l2.5,2.501l43.968,43.968l2.5,2.5l3.707,3.793l0.172,0.086l30.174,30.174C388.558,242.393,388.558,243.946,387.609,244.894z"/>
	</g>
	<path style="opacity:0.1;fill:#040000;" d="M484.938,186.999l-2.112-2.112c0.394-0.438,0.814-0.845,1.207-1.298
		c2.662-2.988,5.162-6.03,7.389-9.236v-13.466l0.008,0v13.473c0.857-1.193,1.688-2.395,2.492-3.607
		c2.095-3.209,4.023-6.497,5.755-9.857c0.433-0.822,0.849-1.662,1.246-2.502c10.281-21.172,13.375-44.952,9.282-67.68
		c-0.132-0.84-0.291-1.671-0.469-2.502c-2.731-13.463-8-26.512-15.815-38.392c-0.796-1.22-1.627-2.44-2.493-3.642
		c-3.481-4.859-7.402-9.505-11.766-13.869L20.145,491.828l18.581,18.581c2.12,2.12,5.59,2.12,7.71,0l15.777-15.777l9.372,9.372
		l88.223-45.012L379.465,253.74l-0.364-0.364l8.498-8.498c0.938-0.938,0.938-2.472,0-3.41L357.3,211.17
		c20.214,8.88,42.525,11.485,63.939,7.638c0.848-0.141,1.678-0.3,2.49-0.476v0.028c13.473-2.716,26.566-7.986,38.464-15.864
		l0.027,0.027c3.259-2.173,6.411-4.455,9.453-7.063l-0.027-0.027c0.998-0.784,1.915-1.608,2.85-2.422l2.215,2.215
		c0.495,0.495,1.304,0.495,1.798,0l6.429-6.429C485.433,188.303,485.433,187.494,484.938,186.999z"/>
</g>
</svg>