<?xml version="1.0" encoding="iso-8859-1"?>
<!-- Uploaded to: SVG Repo, www.svgrepo.com, Generator: SVG Repo Mixer Tools -->
<svg height="800px" width="800px" version="1.1" id="Layer_1" xmlns="http://www.w3.org/2000/svg" xmlns:xlink="http://www.w3.org/1999/xlink" 
	 viewBox="0 0 392.533 392.533" xml:space="preserve">
<path style="fill:#FFFFFF;" d="M221.217,78.869c12.024-19.135,25.729-40.857,21.786-48.032c-1.164-2.069-7.887-9.051-45.511-9.051
	c-96.259,0-174.481,78.287-174.481,174.481s78.222,174.481,174.416,174.481c37.236,0,43.96-6.853,45.123-8.986
	c3.943-7.176-9.632-28.897-21.657-48.032c-20.17-32.194-45.253-72.339-45.253-117.398
	C175.642,151.208,200.918,111.127,221.217,78.869z"/>
<path style="fill:#FFC10D;" d="M197.427,348.962c-84.17,0-152.63-68.525-152.63-152.695s68.461-152.695,152.63-152.695
	c8.275,0,14.481,0.388,19.071,0.84c-3.943,7.111-9.374,15.774-13.834,22.82c-20.622,32.776-48.937,77.64-48.937,128.97
	s28.057,96.194,48.614,128.97c4.461,7.111,9.891,15.774,13.834,22.885C211.65,348.574,205.508,348.962,197.427,348.962z"/>
<path style="fill:#FFFFFF;" d="M154.567,95.935c9.051,0,16.356-7.37,16.356-16.356s-7.37-16.356-16.356-16.356
	s-16.356,7.37-16.356,16.356S145.516,95.935,154.567,95.935z"/>
<path style="fill:#56ACE0;" d="M90.567,167.887c9.051,0,16.356-7.37,16.356-16.356c0-9.051-7.37-16.356-16.356-16.356
	s-16.356,7.434-16.356,16.356S81.516,167.887,90.567,167.887z"/>
<path style="fill:#FFFFFF;" d="M96.967,227.426c-9.051,0-16.356,7.37-16.356,16.356c0,8.986,7.37,16.356,16.356,16.356
	s16.356-7.37,16.356-16.356C113.258,234.731,105.953,227.426,96.967,227.426z"/>
<path style="fill:#56ACE0;" d="M160.579,296.598c-9.051,0-16.356,7.37-16.356,16.356c0,8.986,7.37,16.356,16.356,16.356
	c8.986,0,16.356-7.37,16.356-16.356C176.87,303.903,169.5,296.598,160.579,296.598z"/>
<g>
	<path style="fill:#194F82;" d="M154.567,117.851c21.01,0,38.141-17.131,38.141-38.141s-17.131-38.141-38.141-38.141
		s-38.141,17.131-38.141,38.141S133.427,117.851,154.567,117.851z M154.567,63.289c9.051,0,16.356,7.37,16.356,16.356
		c0,9.05-7.37,16.356-16.356,16.356s-16.356-7.37-16.356-16.356S145.516,63.289,154.567,63.289z"/>
	<path style="fill:#194F82;" d="M90.567,189.673c21.01,0,38.141-17.131,38.141-38.141s-17.131-38.141-38.141-38.141
		s-38.141,17.131-38.141,38.141S69.427,189.673,90.567,189.673z M90.567,135.24c9.051,0,16.356,7.37,16.356,16.356
		c0,9.051-7.37,16.356-16.356,16.356s-16.356-7.434-16.356-16.485C74.147,142.481,81.516,135.24,90.567,135.24z"/>
	<path style="fill:#194F82;" d="M135.173,243.717c0-21.01-17.131-38.141-38.141-38.141S58.89,222.707,58.89,243.717
		s17.131,38.141,38.141,38.141S135.173,264.792,135.173,243.717z M96.967,260.073c-9.051,0-16.356-7.37-16.356-16.356
		s7.37-16.356,16.356-16.356s16.356,7.37,16.356,16.356C113.258,252.768,105.953,260.073,96.967,260.073z"/>
	<path style="fill:#194F82;" d="M160.579,274.747c-21.01,0-38.141,17.131-38.141,38.141s17.131,38.141,38.141,38.141
		s38.141-17.131,38.141-38.141C198.72,291.943,181.589,274.747,160.579,274.747z M160.579,329.309
		c-9.051,0-16.356-7.37-16.356-16.356c0-8.986,7.37-16.356,16.356-16.356c8.986,0,16.356,7.37,16.356,16.356
		C176.87,322.004,169.5,329.309,160.579,329.309z"/>
</g>
<path style="fill:#FFC10D;" d="M326.397,107.636l-7.564,20.17c0.065,14.675,0.776,21.527,2.327,36.008l18.101,175.192
	l18.166-175.192c1.487-14.352,2.263-21.333,2.327-36.008l-7.564-20.17L326.397,107.636L326.397,107.636z"/>
<polygon style="fill:#56ACE0;" points="327.496,85.851 351.027,85.851 366.413,21.786 312.11,21.786 "/>
<g>
	<path style="fill:#194F82;" d="M197.427,392.533c-108.283,0-196.267-87.984-196.267-196.267S89.209,0,197.427,0
		c37.495,0,56.824,6.077,64.582,20.299c10.214,18.489-4.202,41.244-22.432,70.271c-18.747,29.802-42.214,66.974-42.214,105.762
		s23.273,75.96,41.956,105.762c18.101,28.962,32.453,51.846,22.238,70.271C253.735,386.521,234.599,392.533,197.427,392.533z
		 M197.427,21.786c-96.194,0-174.416,78.287-174.416,174.481s78.222,174.481,174.416,174.481c37.236,0,43.96-6.853,45.123-8.986
		c3.943-7.176-9.632-28.897-21.657-48.032c-20.17-32.194-45.253-72.339-45.253-117.398s25.277-85.139,45.511-117.398
		c12.024-19.135,25.729-40.857,21.786-48.032C241.775,28.768,235.052,21.786,197.427,21.786z"/>
	<path style="fill:#194F82;" d="M371.068,96.065l19.782-82.618C393.112,7.822,387.747,0,380.248,0h-81.972
		c-7.628,0-11.83,5.818-10.602,13.446l19.782,82.618l-9.762,25.988c-0.453,1.228-0.711,2.521-0.711,3.879
		c0,17.131,0.84,25.341,2.392,40.21l21.657,209.002c0.905,9.891,8.727,17.39,18.166,17.39c9.503,0,17.325-7.499,18.166-17.261
		l21.657-209.261c1.552-14.804,2.392-23.014,2.392-40.21c0-1.293-0.259-2.651-0.711-3.879L371.068,96.065z M357.363,163.814
		l-18.166,175.192l-18.101-175.192c-1.487-14.352-2.263-21.333-2.327-36.008l7.564-20.17h25.729l7.564,20.17
		C359.625,142.481,358.914,149.333,357.363,163.814z M351.027,85.851h-23.661l-15.386-64.065h54.303L351.027,85.851z"/>
</g>
</svg>