<?xml version="1.0" encoding="iso-8859-1"?>
<!-- Uploaded to: SVG Repo, www.svgrepo.com, Generator: SVG Repo Mixer Tools -->
<svg height="800px" width="800px" version="1.1" id="Layer_1" xmlns="http://www.w3.org/2000/svg" xmlns:xlink="http://www.w3.org/1999/xlink" 
	 viewBox="0 0 392.598 392.598" xml:space="preserve">
<path style="fill:#FFFFFF;" d="M330.731,235.701c0-6.012,4.849-10.925,10.925-10.925h28.962c-0.129-7.499-1.164-14.739-2.78-21.786
	h-47.968c-6.012,0-10.925-4.848-10.925-10.925s4.848-10.925,10.925-10.925h39.952c-16.873-33.745-51.717-57.083-91.927-57.083
	c-21.204,0-39.564-13.059-46.158-32.517C207.58,49.907,168.469,21.85,124.509,21.85c-56.63,0-102.788,46.158-102.788,102.788
	v151.208h348.962v-29.285h-28.962C335.644,246.562,330.731,241.713,330.731,235.701z"/>
<path style="fill:#56ACE0;" d="M43.572,254.061V124.574c0-44.671,36.331-81.002,81.002-81.002c34.651,0,65.358,22.044,76.606,54.885
	c9.568,28.38,36.331,47.386,66.392,47.386c45.059,0,81.39,36.331,81.39,81.002v27.216H43.572L43.572,254.061z"/>
<g>
	<path style="fill:#FFC10D;" d="M130.457,80.226v27.798c15.903,0.517,29.802,5.689,40.598,11.442
		C164.525,97.358,150.82,84.428,130.457,80.226z"/>
	<path style="fill:#FFC10D;" d="M86.174,205.834c-12.283,2.651-18.877,10.408-17.907,14.739l0,0
		c1.616,5.495,13.188,8.469,22.303,6.271c12.283-2.651,18.877-10.408,17.907-14.739C107.636,207.774,98.457,203.248,86.174,205.834z
		"/>
</g>
<g>
	<path style="fill:#194F82;" d="M118.756,57.535c-5.689,0.388-10.149,5.172-10.149,10.925v117.269
		c-7.887-2.715-17.261-3.232-26.958-1.228c-23.273,4.848-38.465,22.691-34.78,40.469v0.065
		c3.556,16.937,24.501,28.057,48.226,23.014c22.174-4.719,37.107-21.204,35.103-38.271c0.129-0.711,0.259-80.162,0.259-80.162
		c26.893,1.422,47.515,20.687,47.774,20.881c8.145,7.176,19.006,0.453,18.489-8.469C194.263,90.117,163.879,57.535,118.756,57.535z
		 M90.57,226.78c-9.115,2.327-20.816-0.776-22.303-6.271c-0.905-4.267,5.624-12.154,17.907-14.739
		c12.283-2.651,21.463,1.939,22.303,6.271C109.382,216.372,102.853,224.259,90.57,226.78z M130.457,108.024V80.226
		c20.493,4.267,34.133,17.131,40.598,39.176C160.259,113.713,146.295,108.541,130.457,108.024z"/>
	<path style="fill:#194F82;" d="M267.507,102.206c-11.572,0-21.398-6.982-25.083-17.778C225.358,33.875,177.972,0,124.574,0
		C55.855,0,0,55.855,0,124.574v257.099c0,6.012,4.848,10.925,10.925,10.925h370.747c6.012,0,10.925-4.848,10.925-10.925V226.78
		C392.533,158.125,336.679,102.206,267.507,102.206z M21.786,124.574c0-56.63,46.158-102.788,102.788-102.788
		c43.96,0,83.071,27.992,97.228,69.689c6.659,19.459,24.954,32.517,46.158,32.517c40.275,0,75.119,23.337,91.927,57.083h-40.016
		c-6.012,0-10.925,4.848-10.925,10.925s4.848,10.925,10.925,10.925h47.968c1.681,7.046,2.65,14.287,2.78,21.786h-28.962
		c-6.012,0-10.925,4.848-10.925,10.925s4.848,10.925,10.925,10.925h29.026v29.35H21.786V124.574z M370.747,370.747L370.747,370.747
		h-45.382v-40.663c0-6.012-4.848-10.925-10.925-10.925c-6.012,0-10.925,4.848-10.925,10.925v40.663h-37.301v-40.663
		c0-6.012-4.848-10.925-10.925-10.925c-6.012,0-10.925,4.848-10.925,10.925v40.663h-37.301v-40.663
		c0-6.012-4.848-10.925-10.925-10.925c-6.012,0-10.925,4.848-10.925,10.925v40.663h-37.301v-40.663
		c0-6.012-4.848-10.925-10.925-10.925s-10.925,4.848-10.925,10.925v40.663H88.954v-40.663c0-6.012-4.848-10.925-10.925-10.925
		s-10.925,4.848-10.925,10.925v40.663H21.786v-73.115h348.962L370.747,370.747L370.747,370.747z"/>
</g>
<path style="fill:#FFC10D;" d="M21.786,370.747h45.382v-40.663c0-6.012,4.848-10.925,10.925-10.925
	c6.077,0,10.861,4.913,10.861,10.925v40.663h37.301v-40.663c0-6.012,4.848-10.925,10.925-10.925s10.925,4.848,10.925,10.925v40.663
	h37.301v-40.663c0-6.012,4.848-10.925,10.925-10.925c6.077,0,10.925,4.848,10.925,10.925v40.663h37.301v-40.663
	c0-6.012,4.848-10.925,10.925-10.925c6.012,0,10.925,4.848,10.925,10.925v40.663h37.172v-40.663c0-6.012,4.848-10.925,10.925-10.925
	c6.012,0,10.925,4.848,10.925,10.925v40.663h45.382v-73.115H21.786V370.747z"/>
</svg>